<?xml version="1.0" standalone="no"?>
<!DOCTYPE svg PUBLIC "-//W3C//DTD SVG 20010904//EN"
 "http://www.w3.org/TR/2001/REC-SVG-20010904/DTD/svg10.dtd">
<svg version="1.0" xmlns="http://www.w3.org/2000/svg"
 width="558.000000pt" height="558.000000pt" viewBox="0 0 558.000000 558.000000"
 preserveAspectRatio="xMidYMid meet">
<metadata>
Created by potrace 1.11, written by Peter Selinger 2001-2013
</metadata>
<g transform="translate(0.000000,558.000000) scale(0.100000,-0.100000)"
fill="#000000" stroke="none">
<path d="M2609 5575 c-2 -2 -40 -6 -84 -9 -77 -6 -322 -43 -335 -51 -4 -2 -17
-6 -31 -8 -227 -42 -592 -192 -826 -339 -107 -66 -261 -174 -283 -198 -3 -3
-34 -29 -70 -59 -67 -56 -248 -236 -309 -306 -19 -22 -70 -87 -113 -145 -43
-58 -83 -110 -88 -117 -6 -7 -10 -15 -10 -17 0 -3 -17 -32 -37 -63 -63 -98
-139 -241 -197 -374 -23 -54 -87 -222 -91 -239 -2 -9 -14 -54 -28 -100 -74
-252 -102 -461 -102 -755 0 -223 8 -323 42 -515 2 -14 17 -79 33 -145 95 -399
275 -765 539 -1095 70 -87 275 -301 346 -360 387 -321 746 -501 1230 -616 70
-17 235 -42 335 -52 97 -9 423 -8 520 1 507 48 1011 242 1411 545 129 98 163
127 299 262 174 173 237 251 378 465 166 253 321 624 377 905 49 246 60 359
60 610 -1 299 -23 461 -101 745 -56 205 -161 458 -261 625 -14 25 -31 54 -37
65 -37 66 -155 231 -235 330 -128 156 -413 424 -510 479 -9 5 -18 13 -21 17
-13 20 -278 177 -395 234 -127 62 -365 155 -435 170 -19 4 -41 12 -47 17 -7 6
-13 8 -13 5 0 -3 -16 -1 -36 5 -69 19 -248 54 -319 62 -27 4 -66 9 -85 12 -40
6 -466 15 -471 9z"/>
</g>
</svg>
